<svg xmlns="http://www.w3.org/2000/svg" width="805" height="600"><rect width="805" height="600" x="0" y="0" fill="#FFFFFF" id="backgorund"/><g id="viz"><clipPath id="serieClipPath"><rect x="-50" y="-20" width="805" height="600"/></clipPath><g transform="translate(0,0)"><g transform="translate(50,20)" clip-path="url(#serieClipPath)"><g id="axis"><g transform="translate(0,560)" fill="none" font-size="10" font-family="sans-serif" text-anchor="middle"><path class="domain" stroke="currentColor" d="M0.5,6V0.5H735.5V6"/><g class="tick" opacity="1" transform="translate(0.5,0)"><line stroke="currentColor" y2="6"/><text fill="currentColor" y="9" dy="0.71em">Jan 03</text></g><g class="tick" opacity="1" transform="translate(57.03846153846154,0)"><line stroke="currentColor" y2="6"/><text fill="currentColor" y="9" dy="0.71em">Jan 10</text></g><g class="tick" opacity="1" transform="translate(113.57692307692308,0)"><line stroke="currentColor" y2="6"/><text fill="currentColor" y="9" dy="0.71em">Jan 17</text></g><g class="tick" opacity="1" transform="translate(170.1153846153846,0)"><line stroke="currentColor" y2="6"/><text fill="currentColor" y="9" dy="0.71em">Jan 24</text></g><g class="tick" opacity="1" transform="translate(226.65384615384616,0)"><line stroke="currentColor" y2="6"/><text fill="currentColor" y="9" dy="0.71em">Jan 31</text></g><g class="tick" opacity="1" transform="translate(283.19230769230774,0)"><line stroke="currentColor" y2="6"/><text fill="currentColor" y="9" dy="0.71em">Feb 07</text></g><g class="tick" opacity="1" transform="translate(339.7307692307692,0)"><line stroke="currentColor" y2="6"/><text fill="currentColor" y="9" dy="0.71em">Feb 14</text></g><g class="tick" opacity="1" transform="translate(396.2692307692308,0)"><line stroke="currentColor" y2="6"/><text fill="currentColor" y="9" dy="0.71em">Feb 21</text></g><g class="tick" opacity="1" transform="translate(452.8076923076923,0)"><line stroke="currentColor" y2="6"/><text fill="currentColor" y="9" dy="0.71em">Feb 28</text></g><g class="tick" opacity="1" transform="translate(509.3461538461538,0)"><line stroke="currentColor" y2="6"/><text fill="currentColor" y="9" dy="0.71em">Mar 06</text></g><g class="tick" opacity="1" transform="translate(565.8846153846155,0)"><line stroke="currentColor" y2="6"/><text fill="currentColor" y="9" dy="0.71em">Mar 13</text></g><g class="tick" opacity="1" transform="translate(622.4230769230769,0)"><line stroke="currentColor" y2="6"/><text fill="currentColor" y="9" dy="0.71em">Mar 20</text></g><g class="tick" opacity="1" transform="translate(678.9615384615385,0)"><line stroke="currentColor" y2="6"/><text fill="currentColor" y="9" dy="0.71em">Mar 27</text></g><g class="tick" opacity="1" transform="translate(735.5,0)"><line stroke="currentColor" y2="6"/><text fill="currentColor" y="9" dy="0.71em">Apr 03</text></g><text x="735" dy="-5" text-anchor="end" style="font-family: Arial, sans-serif; font-size: 12px; fill: rgb(123, 123, 123); font-weight: bold;">日期</text></g><g transform="translate(0,0)" fill="none" font-size="10" font-family="sans-serif" text-anchor="end"><path class="domain" stroke="currentColor" d="M0.5,560.5V0.5"/><g class="tick" opacity="1" transform="translate(0,560.5)"><line stroke="currentColor" x2="-6"/><text fill="currentColor" x="-9" dy="0.32em">92</text></g><g class="tick" opacity="1" transform="translate(0,504.5)"><line stroke="currentColor" x2="-6"/><text fill="currentColor" x="-9" dy="0.32em">94</text></g><g class="tick" opacity="1" transform="translate(0,448.5)"><line stroke="currentColor" x2="-6"/><text fill="currentColor" x="-9" dy="0.32em">96</text></g><g class="tick" opacity="1" transform="translate(0,392.5)"><line stroke="currentColor" x2="-6"/><text fill="currentColor" x="-9" dy="0.32em">98</text></g><g class="tick" opacity="1" transform="translate(0,336.5)"><line stroke="currentColor" x2="-6"/><text fill="currentColor" x="-9" dy="0.32em">100</text></g><g class="tick" opacity="1" transform="translate(0,280.5)"><line stroke="currentColor" x2="-6"/><text fill="currentColor" x="-9" dy="0.32em">102</text></g><g class="tick" opacity="1" transform="translate(0,224.5)"><line stroke="currentColor" x2="-6"/><text fill="currentColor" x="-9" dy="0.32em">104</text></g><g class="tick" opacity="1" transform="translate(0,168.50000000000003)"><line stroke="currentColor" x2="-6"/><text fill="currentColor" x="-9" dy="0.32em">106</text></g><g class="tick" opacity="1" transform="translate(0,112.49999999999997)"><line stroke="currentColor" x2="-6"/><text fill="currentColor" x="-9" dy="0.32em">108</text></g><g class="tick" opacity="1" transform="translate(0,56.499999999999986)"><line stroke="currentColor" x2="-6"/><text fill="currentColor" x="-9" dy="0.32em">110</text></g><g class="tick" opacity="1" transform="translate(0,0.5)"><line stroke="currentColor" x2="-6"/><text fill="currentColor" x="-9" dy="0.32em">112</text></g><text x="4" text-anchor="start" dominant-baseline="hanging" style="font-family: Arial, sans-serif; font-size: 12px; fill: rgb(123, 123, 123); font-weight: bold;">收盤價</text></g></g><g id="viz"><g><path d="M0,487.20000000000016C4.038461538461539,487.20000000000016,4.038461538461539,512.3999999999999,8.076923076923078,512.3999999999999C12.115384615384617,512.3999999999999,12.115384615384617,487.20000000000016,16.153846153846157,487.20000000000016C20.192307692307693,487.20000000000016,20.192307692307693,425.6000000000001,24.23076923076923,425.6000000000001C36.34615384615385,425.6000000000001,36.34615384615385,308,48.46153846153846,308C52.5,308,52.5,294,56.53846153846154,294C60.57692307692308,294,60.57692307692308,322,64.61538461538463,322C68.65384615384616,322,68.65384615384616,308,72.6923076923077,308C76.73076923076923,308,76.73076923076923,308,80.76923076923077,308C92.88461538461539,308,92.88461538461539,308,105,308C109.03846153846155,308,109.03846153846155,294,113.07692307692308,294C165.57692307692307,294,165.57692307692307,196,218.07692307692307,196C222.1153846153846,196,222.1153846153846,336,226.15384615384616,336C230.19230769230768,336,230.19230769230768,280,234.23076923076923,280C238.26923076923077,280,238.26923076923077,251.99999999999997,242.3076923076923,251.99999999999997C246.34615384615384,251.99999999999997,246.34615384615384,168.00000000000003,250.3846153846154,168.00000000000003C262.5,168.00000000000003,262.5,238.00000000000003,274.61538461538464,238.00000000000003C278.6538461538462,238.00000000000003,278.6538461538462,238.00000000000003,282.69230769230774,238.00000000000003C286.7307692307693,238.00000000000003,286.7307692307693,168.00000000000003,290.7692307692308,168.00000000000003C294.8076923076923,168.00000000000003,294.8076923076923,168.00000000000003,298.84615384615387,168.00000000000003C302.8846153846154,168.00000000000003,302.8846153846154,168.00000000000003,306.92307692307696,168.00000000000003C319.03846153846155,168.00000000000003,319.03846153846155,224,331.1538461538462,224C335.19230769230774,224,335.19230769230774,210,339.2307692307692,210C343.2692307692308,210,343.2692307692308,210,347.3076923076923,210C351.34615384615387,210,351.34615384615387,224,355.3846153846154,224C359.4230769230769,224,359.4230769230769,280,363.46153846153845,280C375.5769230769231,280,375.5769230769231,251.99999999999997,387.6923076923077,251.99999999999997C391.7307692307692,251.99999999999997,391.7307692307692,266,395.7692307692308,266C399.8076923076923,266,399.8076923076923,266,403.84615384615387,266C407.88461538461536,266,407.88461538461536,238.00000000000003,411.9230769230769,238.00000000000003C415.96153846153845,238.00000000000003,415.96153846153845,168.00000000000003,420,168.00000000000003C448.2692307692308,168.00000000000003,448.2692307692308,111.99999999999997,476.53846153846155,111.99999999999997C480.5769230769231,111.99999999999997,480.5769230769231,111.99999999999997,484.6153846153846,111.99999999999997C496.73076923076917,111.99999999999997,496.73076923076917,84.00000000000001,508.8461538461538,84.00000000000001C512.8846153846155,84.00000000000001,512.8846153846155,41.99999999999997,516.923076923077,41.99999999999997C520.9615384615386,41.99999999999997,520.9615384615386,70,525,70C529.0384615384615,70,529.0384615384615,84.00000000000001,533.0769230769231,84.00000000000001C537.1153846153846,84.00000000000001,537.1153846153846,140,541.1538461538462,140C553.2692307692308,140,553.2692307692308,98.00000000000003,565.3846153846155,98.00000000000003C569.4230769230769,98.00000000000003,569.4230769230769,140,573.4615384615385,140C577.5,140,577.5,98.00000000000003,581.5384615384615,98.00000000000003C585.5769230769231,98.00000000000003,585.5769230769231,111.99999999999997,589.6153846153846,111.99999999999997C593.6538461538462,111.99999999999997,593.6538461538462,70,597.6923076923077,70C609.8076923076924,70,609.8076923076924,70,621.9230769230769,70C625.9615384615385,70,625.9615384615385,140,630,140C634.0384615384615,140,634.0384615384615,84.00000000000001,638.0769230769231,84.00000000000001C642.1153846153846,84.00000000000001,642.1153846153846,41.99999999999997,646.1538461538462,41.99999999999997C650.1923076923076,41.99999999999997,650.1923076923076,28.000000000000025,654.2307692307692,28.000000000000025C666.3461538461538,28.000000000000025,666.3461538461538,84.00000000000001,678.4615384615385,84.00000000000001C682.5,84.00000000000001,682.5,70,686.5384615384615,70C690.5769230769231,70,690.5769230769231,14.000000000000012,694.6153846153846,14.000000000000012" stroke="#1f77b4" fill="none"/><text font-family="sans-serif" font-size="10" class="labels" x="694.6153846153846" y="14.000000000000012" dx="0" dy="-4" text-anchor="middle"/></g></g></g><text y="4" x="4" style="font-family: Arial, sans-serif; font-size: 12px; fill: black; font-weight: bold; dominant-baseline: hanging;"/></g><g id="grid"><rect x="0" y="0" width="805" height="600" fill="none" stroke="#ccc"/></g></g></svg>